<?xml version="1.0" encoding="iso-8859-1"?>
<!-- Generator: Adobe Illustrator 19.0.0, SVG Export Plug-In . SVG Version: 6.00 Build 0)  -->
<svg version="1.1" id="Layer_1" xmlns="http://www.w3.org/2000/svg" xmlns:xlink="http://www.w3.org/1999/xlink" x="0px" y="0px"
	 viewBox="0 0 512 512" style="enable-background:new 0 0 512 512;" xml:space="preserve">
<g transform="translate(1 1)">
	<g>
		<g>
			<path d="M255,169.667c-46.933,0-85.333,38.4-85.333,85.333s38.4,85.333,85.333,85.333s85.333-38.4,85.333-85.333
				S301.933,169.667,255,169.667z M255,323.267c-37.547,0-68.267-30.72-68.267-68.267c0-37.547,30.72-68.267,68.267-68.267
				c37.547,0,68.267,30.72,68.267,68.267S292.547,323.267,255,323.267z"/>
			<path d="M255,220.867c-18.773,0-34.133,15.36-34.133,34.133c0,18.773,15.36,34.133,34.133,34.133
				c18.773,0,34.133-15.36,34.133-34.133C289.133,236.227,273.773,220.867,255,220.867z M255,272.067
				c-9.387,0-17.067-7.68-17.067-17.067s7.68-17.067,17.067-17.067s17.067,7.68,17.067,17.067S264.387,272.067,255,272.067z"/>
			<path d="M255-1C114.2-1-1,114.2-1,255s115.2,256,256,256s256-115.2,256-256S395.8-1,255-1z M255,493.933
				c-131.413,0-238.933-107.52-238.933-238.933S123.587,16.067,255,16.067S493.933,123.587,493.933,255S386.413,493.933,255,493.933
				z"/>
			<path d="M88.6,167.96c1.707,0.853,2.56,0.853,4.267,0.853c2.56,0,5.973-1.707,6.827-4.267
				c14.507-23.893,34.133-44.373,57.173-59.733c4.267-2.56,5.12-7.68,2.56-11.947c-2.56-4.267-7.68-5.12-11.947-2.56
				c-25.6,17.067-46.933,39.253-62.293,65.707C83.48,160.28,84.333,165.4,88.6,167.96z"/>
			<path d="M255,434.2c-98.987,0-179.2-80.213-179.2-179.2c0-5.12-3.413-8.533-8.533-8.533s-8.533,3.413-8.533,8.533
				c0,108.373,87.893,196.267,196.267,196.267c5.12,0,8.533-3.413,8.533-8.533S260.12,434.2,255,434.2z"/>
			<path d="M255,58.733c-5.12,0-8.533,3.413-8.533,8.533S249.88,75.8,255,75.8c98.987,0,179.2,80.213,179.2,179.2
				c0,5.12,3.413,8.533,8.533,8.533s8.533-3.413,8.533-8.533C451.267,146.627,363.373,58.733,255,58.733z"/>
		</g>
	</g>
</g>
<g>
</g>
<g>
</g>
<g>
</g>
<g>
</g>
<g>
</g>
<g>
</g>
<g>
</g>
<g>
</g>
<g>
</g>
<g>
</g>
<g>
</g>
<g>
</g>
<g>
</g>
<g>
</g>
<g>
</g>
</svg>
